<svg xmlns="http://www.w3.org/2000/svg" width="760" height="360" viewBox="0 0 760 360">
<rect width="100%" height="100%" fill="white"/>
<text x="20" y="26" font-family="Arial" font-size="18" font-weight="700">Render backend profiling</text>
<line x1="72" y1="292" x2="736" y2="292" stroke="#333"/>
<line x1="72" y1="44" x2="72" y2="292" stroke="#333"/>
<line x1="67" y1="292.0" x2="736" y2="292.0" stroke="#e7e7e7"/>
<text x="62" y="296.0" text-anchor="end" font-family="Arial" font-size="11">0</text>
<line x1="67" y1="230.0" x2="736" y2="230.0" stroke="#e7e7e7"/>
<text x="62" y="234.0" text-anchor="end" font-family="Arial" font-size="11">4</text>
<line x1="67" y1="168.0" x2="736" y2="168.0" stroke="#e7e7e7"/>
<text x="62" y="172.0" text-anchor="end" font-family="Arial" font-size="11">7</text>
<line x1="67" y1="106.0" x2="736" y2="106.0" stroke="#e7e7e7"/>
<text x="62" y="110.0" text-anchor="end" font-family="Arial" font-size="11">11</text>
<line x1="67" y1="44.0" x2="736" y2="44.0" stroke="#e7e7e7"/>
<text x="62" y="48.0" text-anchor="end" font-family="Arial" font-size="11">14</text>
<rect x="156.5" y="219.7" width="42" height="72.3" fill="#F58518"/>
<text x="177.5" y="214.7" text-anchor="middle" font-family="Arial" font-size="11">4.1</text>
<text x="177.5" y="310" text-anchor="middle" font-family="Arial" font-size="10">gsplat 2-pass</text>
<rect x="214.5" y="239.0" width="42" height="53.0" fill="#B279A2"/>
<text x="235.5" y="234.0" text-anchor="middle" font-family="Arial" font-size="11">3.0</text>
<text x="235.5" y="310" text-anchor="middle" font-family="Arial" font-size="10">gsplat 19ch</text>
<rect x="272.5" y="240.1" width="42" height="51.9" fill="#54A24B"/>
<text x="293.5" y="235.1" text-anchor="middle" font-family="Arial" font-size="11">3.0</text>
<text x="293.5" y="310" text-anchor="middle" font-family="Arial" font-size="10">gsplat shared</text>
<text x="235.5" y="342" text-anchor="middle" font-family="Arial" font-size="13" font-weight="700">Forward</text>
<rect x="483.5" y="77.8" width="42" height="214.2" fill="#F58518"/>
<text x="504.5" y="72.8" text-anchor="middle" font-family="Arial" font-size="11">12.2</text>
<text x="504.5" y="310" text-anchor="middle" font-family="Arial" font-size="10">gsplat 2-pass</text>
<rect x="541.5" y="78.0" width="42" height="214.0" fill="#B279A2"/>
<text x="562.5" y="73.0" text-anchor="middle" font-family="Arial" font-size="11">12.2</text>
<text x="562.5" y="310" text-anchor="middle" font-family="Arial" font-size="10">gsplat 19ch</text>
<rect x="599.5" y="76.3" width="42" height="215.7" fill="#54A24B"/>
<text x="620.5" y="71.3" text-anchor="middle" font-family="Arial" font-size="11">12.3</text>
<text x="620.5" y="310" text-anchor="middle" font-family="Arial" font-size="10">gsplat shared</text>
<text x="562.5" y="342" text-anchor="middle" font-family="Arial" font-size="13" font-weight="700">Forward + backward</text>
<text x="18" y="168.0" transform="rotate(-90 18 168.0)" text-anchor="middle" font-family="Arial" font-size="12">Median time (ms)</text>
</svg>